<?xml version="1.0" encoding="UTF-8"?>
<svg version="1.1" xmlns="http://www.w3.org/2000/svg" width="512" height="512">
<path d="M0 0 C1.01790619 0.00215515 2.03581238 0.0043103 3.08456421 0.00653076 C17.69363523 0.05620146 32.02575853 0.30709809 46.375 3.3125 C47.34985352 3.51117676 48.32470703 3.70985352 49.32910156 3.91455078 C97.7109774 14.03517194 141.69928269 35.9516877 177.375 70.3125 C178.3640332 71.26068604 178.3640332 71.26068604 179.37304688 72.22802734 C188.86130305 81.37247479 197.6012044 90.66984009 205.375 101.3125 C206.23306152 102.46355017 207.09113451 103.61459177 207.94921875 104.765625 C213.98736829 112.95680614 219.34595521 121.47054105 224.375 130.3125 C224.73948242 130.94430176 225.10396484 131.57610352 225.47949219 132.22705078 C247.08534998 169.97532572 256.85198095 212.74189997 256.6875 255.9375 C256.68534485 256.95540619 256.6831897 257.97331238 256.68096924 259.02206421 C256.63129854 273.63113523 256.38040191 287.96325853 253.375 302.3125 C253.07698486 303.77478027 253.07698486 303.77478027 252.77294922 305.26660156 C242.65232806 353.6484774 220.7358123 397.63678269 186.375 433.3125 C185.74287598 433.97185547 185.11075195 434.63121094 184.45947266 435.31054688 C175.31502521 444.79880305 166.01765991 453.5387044 155.375 461.3125 C154.22394983 462.17056152 153.07290823 463.02863451 151.921875 463.88671875 C143.73224019 469.92427396 135.22961724 475.30707302 126.375 480.3125 C125.66778809 480.7146875 124.96057617 481.116875 124.23193359 481.53125 C98.02919713 496.28361537 69.08869203 505.81885806 39.375 510.3125 C38.25254883 510.48910156 37.13009766 510.66570312 35.97363281 510.84765625 C24.36052257 512.5045586 12.84320055 512.71123513 1.125 512.6875 C-0.39302216 512.68668427 -0.39302216 512.68668427 -1.94171143 512.68585205 C-18.47030572 512.64511956 -34.40413999 511.74174222 -50.625 508.3125 C-51.66688477 508.09287598 -52.70876953 507.87325195 -53.78222656 507.64697266 C-100.07549311 497.54935215 -142.48913721 475.19021242 -176.625 442.3125 C-177.28435547 441.68037598 -177.94371094 441.04825195 -178.62304688 440.39697266 C-188.11130305 431.25252521 -196.8512044 421.95515991 -204.625 411.3125 C-205.48306152 410.16144983 -206.34113451 409.01040823 -207.19921875 407.859375 C-213.23677396 399.66974019 -218.61957302 391.16711724 -223.625 382.3125 C-224.0271875 381.60528809 -224.429375 380.89807617 -224.84375 380.16943359 C-237.8691741 357.03404164 -246.61801461 331.86287591 -251.9375 305.875 C-252.08485596 305.15610596 -252.23221191 304.43721191 -252.3840332 303.6965332 C-255.35789088 288.05024391 -255.99800362 272.57681954 -255.9375 256.6875 C-255.93534485 255.66959381 -255.9331897 254.65168762 -255.93096924 253.60293579 C-255.88129854 238.99386477 -255.63040191 224.66174147 -252.625 210.3125 C-252.42632324 209.33764648 -252.22764648 208.36279297 -252.02294922 207.35839844 C-241.90232806 158.9765226 -219.9858123 114.98821731 -185.625 79.3125 C-184.99287598 78.65314453 -184.36075195 77.99378906 -183.70947266 77.31445312 C-174.56502521 67.82619695 -165.26765991 59.0862956 -154.625 51.3125 C-153.47394983 50.45443848 -152.32290823 49.59636549 -151.171875 48.73828125 C-142.98224019 42.70072604 -134.47961724 37.31792698 -125.625 32.3125 C-124.91778809 31.9103125 -124.21057617 31.508125 -123.48193359 31.09375 C-100.34654164 18.0683259 -75.17537591 9.31948539 -49.1875 4 C-48.46860596 3.85264404 -47.74971191 3.70528809 -47.0090332 3.5534668 C-31.36274391 0.57960912 -15.88931954 -0.06050362 0 0 Z " fill="#EF8C7E" transform="translate(255.625,-0.3125)"/>
<path d="M0 0 C1.01790619 0.00215515 2.03581238 0.0043103 3.08456421 0.00653076 C17.69363523 0.05620146 32.02575853 0.30709809 46.375 3.3125 C47.34985352 3.51117676 48.32470703 3.70985352 49.32910156 3.91455078 C97.7109774 14.03517194 141.69928269 35.9516877 177.375 70.3125 C178.3640332 71.26068604 178.3640332 71.26068604 179.37304688 72.22802734 C188.86130305 81.37247479 197.6012044 90.66984009 205.375 101.3125 C206.23306152 102.46355017 207.09113451 103.61459177 207.94921875 104.765625 C213.98736829 112.95680614 219.34595521 121.47054105 224.375 130.3125 C224.73948242 130.94430176 225.10396484 131.57610352 225.47949219 132.22705078 C246.52053793 168.98852479 256.81499334 211.14906567 256.63574219 253.31445312 C256.62501326 256.30879962 256.63570818 259.30254644 256.6484375 262.296875 C256.65553115 273.78007834 256.04899039 284.94919392 254.375 296.3125 C253.715 296.3125 253.055 296.3125 252.375 296.3125 C252.375 297.9625 252.375 299.6125 252.375 301.3125 C251.715 301.6425 251.055 301.9725 250.375 302.3125 C247.50989263 301.14652786 244.75196129 299.91083581 241.96484375 298.578125 C241.12337296 298.18429626 240.28190216 297.79046753 239.41493225 297.38470459 C236.71055475 296.11807069 234.01122268 294.84113305 231.3125 293.5625 C228.63833873 292.29913192 225.96312519 291.03819239 223.28504944 289.78314209 C221.61748514 289.00132004 219.95216154 288.21469393 218.28953552 287.42242432 C211.62888346 284.29408927 204.72561811 281.21334271 197.3125 280.625 C196.013125 280.521875 194.71375 280.41875 193.375 280.3125 C193.375 279.6525 193.375 278.9925 193.375 278.3125 C192.32441406 278.85390625 191.27382813 279.3953125 190.19140625 279.953125 C184.32968807 282.87946813 178.32914711 285.473745 172.3125 288.0625 C171.16716797 288.56910156 170.02183594 289.07570313 168.84179688 289.59765625 C156.64193785 294.83322328 156.64193785 294.83322328 149.3828125 292.24609375 C137.86419336 286.26827379 130.27468785 279.60923053 122.375 269.3125 C121.86453125 268.68988281 121.3540625 268.06726563 120.828125 267.42578125 C113.22015878 257.91582347 107.44882409 246.71668679 102.125 235.8125 C99.27708046 229.98877507 96.30545647 224.48360453 92.375 219.3125 C91.87871094 218.6525 91.38242187 217.9925 90.87109375 217.3125 C76.20197108 199.21469083 51.85821384 190.29213753 29.375 187.3125 C24.70489874 186.9718367 20.05666754 186.88448635 15.375 186.875 C14.07860596 186.87185791 12.78221191 186.86871582 11.4465332 186.86547852 C0.07088033 186.9525656 -10.77582577 188.72801207 -21.89453125 191.12109375 C-37.4857999 194.47667811 -55.81246768 195.99308014 -70.625 189.3125 C-71.41648438 188.98121094 -72.20796875 188.64992187 -73.0234375 188.30859375 C-80.90631291 184.11822314 -84.94489356 175.69419887 -89.40625 168.30175781 C-91.38178971 165.0772591 -93.54239519 161.98351706 -95.69921875 158.87890625 C-96.625 157.3125 -96.625 157.3125 -96.625 155.3125 C-97.285 154.9825 -97.945 154.6525 -98.625 154.3125 C-97.26375 152.9203125 -97.26375 152.9203125 -95.875 151.5 C-89.97133692 144.5914581 -88.20627907 136.17700575 -87.625 127.3125 C-96.97598712 129.57768739 -96.97598712 129.57768739 -103.7734375 136.03125 C-106.54935872 140.9924709 -107.36409306 145.67691016 -107.625 151.3125 C-108.181875 151.45945313 -108.73875 151.60640625 -109.3125 151.7578125 C-117.11966068 154.05248473 -124.33777782 158.1671297 -128.625 165.3125 C-129.01886401 167.05835112 -129.39150492 168.80904448 -129.75 170.5625 C-131.47493411 177.68264467 -136.14482956 180.85331672 -141.625 185.3125 C-144.44815169 188.05445485 -146.49696822 190.13460761 -146.9375 194.1875 C-146.834375 194.88875 -146.73125 195.59 -146.625 196.3125 C-141.15000184 200.04015832 -137.2239462 201.32314942 -130.625 200.3125 C-125.27492737 198.95274282 -120.02812772 197.34542332 -114.953125 195.1640625 C-110.87843064 193.67365416 -107.16669621 194.92944051 -103.078125 195.9453125 C-99.53148502 197.92194306 -99.16998499 200.14047611 -97.875 203.9375 C-92.72756835 217.98993711 -85.25564141 230.68185859 -74.625 241.3125 C-75.44718744 246.49228086 -76.87910258 251.1089396 -78.75 256 C-80.86238081 261.5141824 -80.86238081 261.5141824 -80.625 267.3125 C-76.70467444 271.99060052 -72.17432203 274.44846672 -66.75 277.125 C-65.97269531 277.53169922 -65.19539062 277.93839844 -64.39453125 278.35742188 C-59.63503402 280.73717049 -56.0649524 281.9336238 -50.625 281.3125 C-47.75353006 279.94252843 -47.75353006 279.94252843 -45.625 278.3125 C-46.74951727 275.3405615 -47.84793791 272.97809313 -49.625 270.3125 C-52.51089371 269.91439103 -52.51089371 269.91439103 -55.8125 269.9375 C-62.05902024 269.58431537 -65.26837629 268.87175737 -69.625 264.3125 C-70.58831215 260.28410373 -69.57053074 257.92119404 -67.625 254.4375 C-66.965 253.40625 -66.305 252.375 -65.625 251.3125 C-62.12360458 252.61160431 -59.13343614 254.16491413 -56 256.1875 C-46.74899588 261.82033362 -34.96715706 266.19336641 -24.0625 266.5 C-18.86998685 266.93424932 -15.97677785 269.95173754 -12.1484375 273.25 C-6.39829789 277.94980451 -0.00608433 280.27441848 7.0625 282.3125 C12.44159207 283.86391662 16.09626611 285.73030418 20.375 289.3125 C17.80793352 291.02387765 15.83619438 291.98994469 12.98632812 293.03662109 C11.65849304 293.52755753 11.65849304 293.52755753 10.30383301 294.02841187 C9.34763062 294.37739532 8.39142822 294.72637878 7.40625 295.0859375 C5.92022278 295.63346176 5.92022278 295.63346176 4.4041748 296.19204712 C1.22912282 297.36087911 -1.94790543 298.52423309 -5.125 299.6875 C-7.23450552 300.46318681 -9.34388202 301.23922457 -11.453125 302.015625 C-21.33617221 305.65085226 -21.33617221 305.65085226 -25.90045166 307.31195068 C-27.78613946 308.00444111 -29.66720193 308.7096092 -31.54437256 309.42486572 C-41.70362868 313.25381519 -52.87500117 314.90418772 -63.625 312.3125 C-67.66850551 308.91441079 -68.87448099 305.1923715 -70.625 300.3125 C-74.99992416 293.75011377 -80.70409674 289.89613923 -87.625 286.3125 C-88.25664062 285.9825 -88.88828125 285.6525 -89.5390625 285.3125 C-93.78662986 283.29539038 -97.9810766 282.57357235 -102.625 282.3125 C-104.02298828 282.23322266 -104.02298828 282.23322266 -105.44921875 282.15234375 C-112.30974872 281.9503051 -118.23582941 282.72736389 -124.625 285.3125 C-124.955 285.6425 -125.285 285.9725 -125.625 286.3125 C-130.19158986 286.79830743 -133.20723264 286.23236107 -137.4375 284.4375 C-145.33311523 281.10930344 -152.7343695 280.11566648 -161.25 279.9375 C-161.93513672 279.91139648 -162.62027344 279.88529297 -163.32617188 279.85839844 C-180.65882129 279.80329919 -197.79150649 288.28312316 -213.625 294.375 C-216.03743976 295.29576244 -218.45019822 296.21569034 -220.86328125 297.13476562 C-225.27933802 298.81784571 -229.69346585 300.50578599 -234.10546875 302.19946289 C-235.05341309 302.56113556 -236.00135742 302.92280823 -236.97802734 303.29544067 C-238.65438989 303.9395577 -240.32713348 304.59324307 -241.99462891 305.25997925 C-245.47805149 306.63364916 -247.82078657 307.3125 -251.625 307.3125 C-252.10681362 304.33374032 -252.58550857 301.35453251 -253.0625 298.375 C-253.19720703 297.54419922 -253.33191406 296.71339844 -253.47070312 295.85742188 C-253.60283203 295.02919922 -253.73496094 294.20097656 -253.87109375 293.34765625 C-253.99154053 292.5987915 -254.1119873 291.84992676 -254.23608398 291.07836914 C-255.26603905 283.75359771 -255.79140664 276.57826885 -255.828125 269.1796875 C-255.83871445 267.76016533 -255.83871445 267.76016533 -255.84951782 266.31196594 C-256.07741099 226.79597888 -256.07741099 226.79597888 -252.625 210.3125 C-252.42632324 209.33764648 -252.22764648 208.36279297 -252.02294922 207.35839844 C-241.90232806 158.9765226 -219.9858123 114.98821731 -185.625 79.3125 C-184.99287598 78.65314453 -184.36075195 77.99378906 -183.70947266 77.31445312 C-174.56502521 67.82619695 -165.26765991 59.0862956 -154.625 51.3125 C-153.47394983 50.45443848 -152.32290823 49.59636549 -151.171875 48.73828125 C-142.98224019 42.70072604 -134.47961724 37.31792698 -125.625 32.3125 C-124.91778809 31.9103125 -124.21057617 31.508125 -123.48193359 31.09375 C-100.34654164 18.0683259 -75.17537591 9.31948539 -49.1875 4 C-48.46860596 3.85264404 -47.74971191 3.70528809 -47.0090332 3.5534668 C-31.36274391 0.57960912 -15.88931954 -0.06050362 0 0 Z " fill="#FEC27D" transform="translate(255.625,-0.3125)"/>
<path d="M0 0 C-0.56584778 3.83363985 -1.62499352 6.37733431 -3.7734375 9.58984375 C-4.34537842 10.449729 -4.91731934 11.30961426 -5.5065918 12.19555664 C-6.1231665 13.10039795 -6.73974121 14.00523926 -7.375 14.9375 C-8.00768799 15.87392334 -8.64037598 16.81034668 -9.29223633 17.77514648 C-17.63829767 30.01302281 -26.7196931 41.32629067 -37 52 C-37.63212402 52.65935547 -38.26424805 53.31871094 -38.91552734 53.99804688 C-48.05997479 63.48630305 -57.35734009 72.2262044 -68 80 C-69.15105017 80.85806152 -70.30209177 81.71613451 -71.453125 82.57421875 C-79.64275981 88.61177396 -88.14538276 93.99457302 -97 99 C-98.06081787 99.60328125 -98.06081787 99.60328125 -99.14306641 100.21875 C-125.34580287 114.97111537 -154.28630797 124.50635806 -184 129 C-185.12245117 129.17660156 -186.24490234 129.35320312 -187.40136719 129.53515625 C-199.01447743 131.1920586 -210.53179945 131.39873513 -222.25 131.375 C-223.26201477 131.37445618 -224.27402954 131.37391235 -225.31671143 131.37335205 C-241.84530572 131.33261956 -257.77913999 130.42924222 -274 127 C-275.04188477 126.78037598 -276.08376953 126.56075195 -277.15722656 126.33447266 C-323.45049311 116.23685215 -365.86413721 93.87771242 -400 61 C-400.65935547 60.36787598 -401.31871094 59.73575195 -401.99804688 59.08447266 C-411.48551762 49.94078219 -420.18759261 40.61499963 -428 30 C-428.59039062 29.27425781 -429.18078125 28.54851562 -429.7890625 27.80078125 C-431 26 -431 26 -431 23 C-428.08582551 22.0286085 -425.93364011 21.79221944 -422.88720703 21.64282227 C-421.83985382 21.58929092 -420.79250061 21.53575958 -419.71340942 21.48060608 C-418.57306244 21.42642014 -417.43271545 21.37223419 -416.2578125 21.31640625 C-415.06566132 21.25597641 -413.87351013 21.19554657 -412.64523315 21.13328552 C-408.80534269 20.93904539 -404.96520967 20.75031538 -401.125 20.5625 C-396.14826392 20.31716337 -391.17169753 20.06876604 -386.1953125 19.81640625 C-384.93928223 19.75273361 -383.68325195 19.68906097 -382.38916016 19.62345886 C-373.75435507 19.17372943 -365.13191443 18.61222336 -356.5078125 17.9921875 C-342.91032357 17.01874593 -329.30835597 16.344769 -315.69012451 15.73849487 C-308.82160963 15.4316966 -301.95365719 15.11314558 -295.0859375 14.7890625 C-294.05404989 14.74039315 -294.05404989 14.74039315 -293.00131607 14.69074059 C-278.78970864 14.01678437 -264.59204542 13.15653548 -250.39379883 12.24639893 C-233.95407551 11.19596659 -217.51306387 10.37509662 -201.05224609 9.73413086 C-191.07698546 9.33529979 -181.12957301 8.75191313 -171.171875 8.03515625 C-160.84855034 7.29523818 -150.52667036 6.68785574 -140.1875 6.21875 C-139.19248096 6.17350032 -139.19248096 6.17350032 -138.17736053 6.1273365 C-132.77478244 5.88294098 -127.3718402 5.64702026 -121.96887207 5.41143799 C-103.33699885 4.59763074 -84.73758019 3.56058682 -66.13519287 2.22155762 C-58.86482639 1.70777581 -51.58992936 1.27493422 -44.3125 0.875 C-43.55079498 0.83264221 -42.78908997 0.79028442 -42.00430298 0.74664307 C-27.99503275 -0.01939402 -14.03137493 -0.24746693 0 0 Z " fill="#E37A68" transform="translate(479,381)"/>
<path d="M0 0 C0.59700394 9.10431002 -1.21756466 17.11153912 -7.25 24.1875 C-8.1575 25.115625 -9.065 26.04375 -10 27 C-9.62230469 27.51304687 -9.24460938 28.02609375 -8.85546875 28.5546875 C-5.82850206 32.76550299 -2.98586687 36.96464094 -0.40234375 41.4609375 C6.1052823 53.43630913 6.1052823 53.43630913 17 61 C17.89460938 61.4021875 18.78921875 61.804375 19.7109375 62.21875 C36.72366586 68.69145899 57.48021074 65.12319794 74.75390625 61.1328125 C94.48727864 56.66246924 116.61921231 57.04335188 136 63 C136.6919043 63.20898926 137.38380859 63.41797852 138.09667969 63.63330078 C158.11905662 69.89909384 176.75978136 81.96508988 186.97070312 100.78955078 C188.68120616 104.10088742 190.30895097 107.45062453 191.93359375 110.8046875 C197.31579753 121.85793398 203.42425521 132.29952989 211 142 C212.04607422 143.40378906 212.04607422 143.40378906 213.11328125 144.8359375 C219.88655672 153.61833731 228.95011376 162.10416774 240 165 C245.04783236 165.28060343 248.56721212 164.70205019 253.1953125 162.69921875 C254.88720703 161.97508789 254.88720703 161.97508789 256.61328125 161.23632812 C257.77214844 160.72521484 258.93101562 160.21410156 260.125 159.6875 C261.29160156 159.18798828 262.45820313 158.68847656 263.66015625 158.17382812 C269.82346264 155.54959152 269.82346264 155.54959152 275.68310547 152.33129883 C278 151 278 151 281 151 C281 151.66 281 152.32 281 153 C282.8253125 152.8453125 282.8253125 152.8453125 284.6875 152.6875 C295.58434998 152.70021264 306.53924995 159.51035829 316.1875 164.0625 C323.71361677 167.60238229 331.23228477 171.02064724 339 174 C339.33 172.35 339.66 170.7 340 169 C340.33 169 340.66 169 341 169 C340.51358785 175.84817102 339.64006048 182.33042073 338 189 C337.67 187.68 337.34 186.36 337 185 C292.78 185 248.56 185 203 185 C205.0345041 182.9654959 206.29354423 182.32946725 208.9140625 181.2734375 C209.67460937 180.9640625 210.43515625 180.6546875 211.21875 180.3359375 C212.0128125 180.01882813 212.806875 179.70171875 213.625 179.375 C214.42679687 179.05015625 215.22859375 178.7253125 216.0546875 178.390625 C218.03463057 177.58921947 220.0170821 176.79401638 222 176 C222 175.34 222 174.68 222 174 C220.05196061 172.40724445 218.09446173 170.91600259 216.0625 169.4375 C206.49940487 162.24770886 199.11043302 154.04345147 191.81640625 144.62890625 C179.95446854 129.32516278 168.11176486 116.55567113 148 113 C147.84144531 113.61746094 147.68289063 114.23492187 147.51953125 114.87109375 C144.13015019 127.17398522 137.59967435 137.54898175 127 145 C129.36190918 150.79741345 134.50282738 154.53006779 139.25 158.375 C140.20132813 159.14714844 141.15265625 159.91929687 142.1328125 160.71484375 C145.49055001 163.39096969 148.8897929 166.00779786 152.3203125 168.58984375 C154 170 154 170 155 172 C155.4649288 179.5227004 154.05089579 186.04834006 152.1875 193.3125 C151.92646484 194.36373047 151.66542969 195.41496094 151.39648438 196.49804688 C150.33533751 200.76097513 149.25683966 205.01867313 148.14453125 209.26855469 C147.87382812 210.3155957 147.603125 211.36263672 147.32421875 212.44140625 C146.95623169 213.84241577 146.95623169 213.84241577 146.58081055 215.27172852 C145.6999951 219.40922857 145.15094766 223.82133065 146 228 C149.79483511 230.52989008 152.9318324 230.54628061 157.40625 230.94921875 C160 232 160 232 161.83203125 234.9296875 C163.53123173 239.68147177 163.32742705 244.45394432 163.1875 249.4375 C163.17396484 250.35982422 163.16042969 251.28214844 163.14648438 252.23242188 C163.11140953 254.48890383 163.06226387 256.74413226 163 259 C152.26468372 257.63481527 144.43469765 250.42230648 137 243 C135.90171875 241.95005859 135.90171875 241.95005859 134.78125 240.87890625 C131.92578399 237.79115034 130.06475752 235.45911094 129.8737793 231.15600586 C129.98117432 230.12354736 130.08856934 229.09108887 130.19921875 228.02734375 C130.31612061 226.88088379 130.43302246 225.73442383 130.5534668 224.55322266 C131.257258 218.95290709 132.08765923 213.38240653 133 207.8125 C133.35677447 205.61109814 133.71097993 203.40927824 134.0625 201.20703125 C134.21847656 200.2528833 134.37445313 199.29873535 134.53515625 198.31567383 C135.15511476 193.89358534 135.55568258 189.44317423 136 185 C107.29 185 78.58 185 49 185 C51.1480146 182.8519854 52.47439271 182.3034236 55.29101562 181.27587891 C56.17954224 180.94858795 57.06806885 180.621297 57.98352051 180.28408813 C58.94802124 179.93510468 59.91252197 179.58612122 60.90625 179.2265625 C61.90072144 178.86154633 62.89519287 178.49653015 63.9197998 178.12045288 C67.11131202 176.95006729 70.30551448 175.78724285 73.5 174.625 C76.66539349 173.46850674 79.83019817 172.31042854 82.99450684 171.15097046 C84.96389486 170.42987615 86.93398771 169.71070273 88.90490723 168.99380493 C94.98381319 166.77448033 101.00564941 164.43849175 107 162 C102.30493024 158.68583311 98.15964162 156.59816871 92.625 155 C84.76618754 152.71958159 78.02635231 150.17568086 72.1875 144.3125 C67.99419777 140.4205129 64.18835086 140.11363687 58.6328125 139.5078125 C47.04291801 137.88771972 35.11431619 133.50207906 25.828125 126.3203125 C24.10561583 124.80483648 24.10561583 124.80483648 22 125 C19.64233854 129.12590755 18.06583964 132.2254026 19 137 C21.98347344 140.15395764 23.76928988 140.91363438 28.1171875 141.21875 C29.25414062 141.2496875 30.39109375 141.280625 31.5625 141.3125 C37.45977394 141.55485372 37.45977394 141.55485372 39.953125 143.609375 C41.3125 145.5625 41.3125 145.5625 43 149 C42.06896676 151.32758311 41.34617872 152.74357132 39.3125 154.25 C32.84349524 156.3480556 28.32931886 154.6034243 22.47070312 151.68945312 C21.59349609 151.23505859 20.71628906 150.78066406 19.8125 150.3125 C18.92369141 149.87744141 18.03488281 149.44238281 17.11914062 148.99414062 C8.52905347 144.63778538 8.52905347 144.63778538 6 140 C5.038439 133.95833351 7.78809156 128.62097685 9.95507812 123.1015625 C10.22900391 122.37453125 10.50292969 121.6475 10.78515625 120.8984375 C11.17006226 119.91883057 11.17006226 119.91883057 11.56274414 118.91943359 C12.09210409 116.59568823 11.78930695 115.23056095 11 113 C9.68233567 111.28792979 9.68233567 111.28792979 8 109.625 C-1.26592163 99.35273853 -9.06589334 85.9388514 -12.98828125 72.65234375 C-13.32214844 71.77707031 -13.65601563 70.90179688 -14 70 C-21.82789612 66.53766133 -27.79279398 69.159773 -35.31640625 72.0625 C-41.15233516 74.10125246 -48.1907204 75.55769798 -54.1015625 73.140625 C-56.21663905 71.93947042 -58.26902883 70.73097117 -60 69 C-60.47959672 65.63112551 -60.2241428 64.31878088 -58.2421875 61.5 C-57.46101563 60.675 -56.67984375 59.85 -55.875 59 C-55.05386719 58.11957031 -54.23273438 57.23914063 -53.38671875 56.33203125 C-51.52007271 54.50815615 -49.83567577 53.11777641 -47.6875 51.6875 C-44.60650167 48.60650167 -44.18579501 46.77363996 -43.0625 42.625 C-40.73560067 34.17568522 -36.73462941 30.4831759 -29.375 26.0625 C-26.0795425 24.21252295 -23.77620799 23.78137743 -20 24 C-20.04640625 23.443125 -20.0928125 22.88625 -20.140625 22.3125 C-20.42350488 16.33161115 -19.67175768 11.84143118 -16 7 C-11.02851188 2.39862266 -6.90462677 -0.18661153 0 0 Z " fill="#B56B60" transform="translate(168,127)"/>
<path d="M0 0 C15.07422127 -0.267444 30.06680451 0.517071 45.11390615 1.35268784 C48.73306264 1.55257456 52.35252702 1.74674068 55.97195435 1.94165039 C62.22185641 2.27897618 68.47155865 2.61981451 74.72113419 2.96313477 C83.75663822 3.45949468 92.79243192 3.95040785 101.82830213 4.44005108 C116.49332765 5.23487733 131.15811437 6.03402363 145.82275391 6.8359375 C160.0563537 7.61427121 174.29006374 8.39053874 188.52392578 9.1640625 C189.40334745 9.21185443 190.28276912 9.25964636 191.18883993 9.30888653 C195.60125178 9.54866517 200.01366582 9.78840356 204.42608094 10.02812195 C240.9510616 12.01250898 277.47565612 14.00392846 314 16 C314.33 16.99 314.66 17.98 315 19 C281.8525361 40.77901375 246.4163132 56.0390175 207 62 C205.87754883 62.17660156 204.75509766 62.35320312 203.59863281 62.53515625 C191.98552257 64.1920586 180.46820055 64.39873513 168.75 64.375 C167.23197784 64.37418427 167.23197784 64.37418427 165.68328857 64.37335205 C149.15469428 64.33261956 133.22086001 63.42924222 117 60 C115.95811523 59.78037598 114.91623047 59.56075195 113.84277344 59.33447266 C78.95172931 51.72393772 45.76670107 37.24014203 17 16 C16.3414502 15.5143457 15.68290039 15.02869141 15.00439453 14.52832031 C13.05325898 13.075803 11.11717607 11.60587905 9.1875 10.125 C8.60629395 9.68478516 8.02508789 9.24457031 7.42626953 8.79101562 C4.08238269 6.16389018 2.07808019 3.67386511 0 0 Z " fill="#D96A57" transform="translate(88,448)"/>
<path d="M0 0 C0.73492676 0.00918457 1.46985352 0.01836914 2.22705078 0.02783203 C11.43602588 0.32553172 20.75782168 2.35149783 29 6.5 C34.51244314 7.02004181 38.04148269 5.83892326 43 3.5 C53.28243916 0.25973556 66.20842649 2.30539075 75.625 7.125 C86.50948949 13.55321491 92.44161639 21.35097628 98 32.5 C99.28189209 32.49419922 100.56378418 32.48839844 101.88452148 32.48242188 C122.94044926 32.42076643 143.9925937 32.70785514 165.04650879 32.96356201 C170.12930032 33.02497025 175.21211193 33.08466962 180.29492188 33.14453125 C190.19663445 33.26138902 200.09832408 33.38007959 210 33.5 C210.01695604 35.06335678 210.02889979 36.62676828 210.03881836 38.19018555 C210.04602402 39.06080124 210.05322968 39.93141693 210.06065369 40.82841492 C209.96463232 45.05782391 209.28340469 49.15137104 208.5625 53.3125 C208.36043945 54.54129883 208.36043945 54.54129883 208.15429688 55.79492188 C207.50401296 59.71248593 206.78294832 63.60670631 206 67.5 C162.59103555 65.30856546 119.18637406 63.04305667 75.78515625 60.703125 C73.53437705 60.58183804 71.28359758 60.46055611 69.03281784 60.33927917 C49.48753104 59.28598191 29.94236342 58.23047854 10.39730018 57.17304111 C-1.18902869 56.54619512 -12.77541355 55.92040647 -24.36191088 55.29668117 C-30.85638804 54.94698728 -37.35077187 54.59562326 -43.84508789 54.24294996 C-47.83760621 54.0265244 -51.83020744 53.81166077 -55.82283401 53.59724236 C-57.66637372 53.49792182 -59.50987888 53.39795761 -61.35334587 53.29729652 C-63.86897306 53.16002376 -66.38471464 53.02507226 -68.90049744 52.89068604 C-69.62454661 52.85061408 -70.34859578 52.81054213 -71.09458584 52.76925588 C-75.40526049 52.54196796 -79.68552609 52.46481029 -84 52.5 C-84.84357963 49.440229 -85.6730202 46.3767954 -86.5 43.3125 C-86.73847656 42.44818359 -86.97695312 41.58386719 -87.22265625 40.69335938 C-87.44824219 39.85224609 -87.67382812 39.01113281 -87.90625 38.14453125 C-88.11572266 37.37471924 -88.32519531 36.60490723 -88.54101562 35.81176758 C-89.03538729 33.32176477 -89.07833519 31.03218501 -89 28.5 C-87.90389404 28.10228394 -87.90389404 28.10228394 -86.78564453 27.6965332 C-83.23102991 26.40477183 -79.67781889 25.10918927 -76.125 23.8125 C-75.46417419 23.57167694 -74.80334839 23.33085388 -74.12249756 23.08273315 C-66.05070619 20.13807111 -58.00570355 17.13584538 -50 14.015625 C-49.25700653 13.72709152 -48.51401306 13.43855804 -47.74850464 13.14128113 C-44.15333983 11.74474711 -40.56218732 10.33931454 -36.97705078 8.91723633 C-25.28667804 4.33276436 -12.72592127 -0.3503116 0 0 Z " fill="#FAAE98" transform="translate(94,278.5)"/>
<path d="M0 0 C24.66990137 20.69596191 39.31759649 47.79078722 42.69262695 79.83447266 C43.49468954 89.30423577 43.16245847 98.80411713 41.89477539 108.22119141 C40.90477539 108.22119141 39.91477539 108.22119141 38.89477539 108.22119141 C37.17218329 105.74898107 35.67851599 103.33898503 34.20727539 100.72119141 C33.76738281 99.95742187 33.32749023 99.19365234 32.87426758 98.40673828 C29.57563447 92.61087533 26.58511875 86.68811562 23.65600586 80.69970703 C21.11699208 75.551976 18.36753606 70.79012852 14.89477539 66.22119141 C14.39848633 65.56119141 13.90219727 64.90119141 13.39086914 64.22119141 C-1.27825353 46.12338224 -25.62201077 37.20082894 -48.10522461 34.22119141 C-52.77532587 33.88052811 -57.42355707 33.79317776 -62.10522461 33.78369141 C-63.40161865 33.78054932 -64.6980127 33.77740723 -66.03369141 33.77416992 C-77.40934428 33.86125701 -88.25605038 35.63670348 -99.37475586 38.02978516 C-117.02122949 41.82769489 -137.06304564 43.01584802 -153.04272461 33.53369141 C-157.59768808 30.26453866 -160.36872021 26.05031681 -163.10522461 21.22119141 C-160.94466422 16.46795856 -157.60804793 13.03393531 -154.10522461 9.22119141 C-153.60249023 8.65271484 -153.09975586 8.08423828 -152.58178711 7.49853516 C-139.22245615 -6.84409681 -119.78452168 -16.66256718 -101.10522461 -21.77880859 C-99.99791992 -22.09720703 -98.89061523 -22.41560547 -97.74975586 -22.74365234 C-64.22163761 -30.96467117 -26.61325078 -21.59252038 0 0 Z " fill="#F9FE90" transform="translate(333.105224609375,152.77880859375)"/>
<path d="M0 0 C12.79611336 -0.90681118 23.23579787 2.66831994 33 11 C41.80794466 19.32807421 47.75010593 29.54668673 48.11328125 41.83203125 C48.14266498 45.55674743 48.08727363 49.27632501 48 53 C48.94101562 52.50628906 49.88203125 52.01257813 50.8515625 51.50390625 C52.1091536 50.85634068 53.36697864 50.20922929 54.625 49.5625 C55.24246094 49.23701172 55.85992187 48.91152344 56.49609375 48.57617188 C66.19363495 43.6253219 77.3959114 43.69963616 87.75 46.625 C99.62362088 50.70208669 109.32003773 58.72360431 115 70 C118.99244174 79.78148227 120.12967764 89.61782149 118 100 C112.72114988 99.24587855 108.00997614 97.71186655 103 95.9375 C97.25332193 94.1416631 91.6163294 93.76619522 85.625 93.6875 C84.92761719 93.65849609 84.23023437 93.62949219 83.51171875 93.59960938 C66.10193912 93.40072789 48.89499609 101.94696027 33 108.0625 C30.58756024 108.98326244 28.17480178 109.90319034 25.76171875 110.82226562 C21.34566198 112.50534571 16.93153415 114.19328599 12.51953125 115.88696289 C11.57158691 116.24863556 10.62364258 116.61030823 9.64697266 116.98294067 C7.97061011 117.6270577 6.29786652 118.28074307 4.63037109 118.94747925 C1.14694851 120.32114916 -1.19578657 121 -5 121 C-5.48181362 118.02124032 -5.96050857 115.04203251 -6.4375 112.0625 C-6.57220703 111.23169922 -6.70691406 110.40089844 -6.84570312 109.54492188 C-6.97783203 108.71669922 -7.10996094 107.88847656 -7.24609375 107.03515625 C-7.36654053 106.2862915 -7.4869873 105.53742676 -7.61108398 104.76586914 C-8.64103815 97.44110408 -9.16644929 90.26576556 -9.203125 82.8671875 C-9.21013931 81.92070343 -9.21715363 80.97421936 -9.22438049 79.99905396 C-9.24180968 76.95765385 -9.24823353 73.91644822 -9.25 70.875 C-9.25067474 69.83811035 -9.25134949 68.8012207 -9.25204468 67.73291016 C-9.23672133 52.94688322 -9.00317249 38.53156957 -6 24 C-5.79648926 23.00532715 -5.59297852 22.0106543 -5.38330078 20.98583984 C-1.71478675 3.42957349 -1.71478675 3.42957349 0 0 Z " fill="#FED0A9" transform="translate(9,186)"/>
<path d="M0 0 C5.92215658 22.68209377 8.27054589 43.97735603 8.3125 67.375 C8.31617584 68.36378143 8.31985168 69.35256287 8.32363892 70.37130737 C8.34758286 82.72702203 7.78457945 94.76842909 6 107 C5.34 107 4.68 107 4 107 C4 108.65 4 110.3 4 112 C3.01 112.495 3.01 112.495 2 113 C-0.86510737 111.83402786 -3.62303871 110.59833581 -6.41015625 109.265625 C-7.25162704 108.87179626 -8.09309784 108.47796753 -8.96006775 108.07220459 C-11.66444525 106.80557069 -14.36377732 105.52863305 -17.0625 104.25 C-19.73666127 102.98663192 -22.41187481 101.72569239 -25.08995056 100.47064209 C-26.75751486 99.68882004 -28.42283846 98.90219393 -30.08546448 98.10992432 C-36.74611654 94.98158927 -43.64938189 91.90084271 -51.0625 91.3125 C-52.361875 91.209375 -53.66125 91.10625 -55 91 C-55 90.34 -55 89.68 -55 89 C-56.05058594 89.54140625 -57.10117187 90.0828125 -58.18359375 90.640625 C-64.04531193 93.56696813 -70.04585289 96.161245 -76.0625 98.75 C-77.20783203 99.25660156 -78.35316406 99.76320313 -79.53320312 100.28515625 C-91.77327739 105.53798164 -91.77327739 105.53798164 -99.02734375 102.8984375 C-111.55516821 96.34024752 -111.55516821 96.34024752 -116 92 C-116 91.34 -116 90.68 -116 90 C-108.74601342 90.47567125 -102.73187777 92.29466594 -96 95 C-96.04640625 93.92363281 -96.0928125 92.84726562 -96.140625 91.73828125 C-96.61940734 75.84709334 -93.26623782 63.68464938 -82.3125 51.8125 C-72.41027033 42.32680772 -61.24708985 39.49317938 -47.8984375 39.6796875 C-39.22321976 40.39248094 -32.08221996 42.99088158 -25 48 C-25.04640625 47.06800781 -25.0928125 46.13601562 -25.140625 45.17578125 C-25.54357299 30.94308264 -22.64512836 19.93579653 -13 9 C-3.9027027 0 -3.9027027 0 0 0 Z " fill="#FECFA9" transform="translate(504,189)"/>
<path d="M0 0 C13.3814938 0.44604979 24.05906037 8.03516729 33.26953125 17.27734375 C37.42310399 21.76553006 41.18849795 26.50128263 44.875 31.375 C53.68512048 42.97362922 63.30052382 52.32360015 75 61 C74.67 61.99 74.34 62.98 74 64 C68.39 66.31 62.78 68.62 57 71 C100.56 71.33 144.12 71.66 189 72 C189 80 189 80 188 83 C126.95 83 65.9 83 3 83 C4.09090909 75.36363636 4.09090909 75.36363636 5.0625 72.125 C5.80590149 69.17998639 6.26635294 66.34784346 6.4375 63.3125 C6.47746094 62.60738281 6.51742188 61.90226562 6.55859375 61.17578125 C5.13698452 55.63846417 -1.54833465 51.87337358 -5.9375 48.5 C-19.14410887 38.28383669 -19.14410887 38.28383669 -22 34 C-20.60243441 30.71286869 -19.04355249 29.00511388 -16.25 26.8125 C-7.78532008 19.57015653 -4.05607821 10.111429 0 0 Z " fill="#FEC7A4" transform="translate(316,240)"/>
<path d="M0 0 C61.38 0 122.76 0 186 0 C182.37264509 12.09118302 178.91751739 23.49091675 174 35 C173.67 34.34 173.34 33.68 173 33 C172.05159634 32.9690743 172.05159634 32.9690743 171.08403301 32.93752384 C151.69893907 32.29241516 132.33962695 31.33150138 112.97299981 30.28317332 C108.84123293 30.06000713 104.70932768 29.83943089 100.57743835 29.61854553 C92.80089515 29.20244472 85.02447371 28.78411341 77.24809664 28.3649202 C68.3746996 27.88670452 59.50116487 27.41106753 50.62761939 26.93561542 C32.41826152 25.95988627 14.20907346 24.98102185 -4 24 C-3.27630988 15.74993263 -1.65433298 8.27166491 0 0 Z " fill="#F69A8E" transform="translate(318,323)"/>
<path d="M0 0 C0.66 0 1.32 0 2 0 C2.4125 1.00417969 2.825 2.00835937 3.25 3.04296875 C9.09119335 16.98845355 16.18915455 30.18915455 27 41 C26.17781256 46.17978086 24.74589742 50.7964396 22.875 55.6875 C20.76261919 61.2016824 20.76261919 61.2016824 21 67 C24.92032556 71.67810052 29.45067797 74.13596672 34.875 76.8125 C35.65230469 77.21919922 36.42960937 77.62589844 37.23046875 78.04492188 C41.98996598 80.42467049 45.5600476 81.6211238 51 81 C53.87146994 79.63002843 53.87146994 79.63002843 56 78 C54.87548273 75.0280615 53.77706209 72.66559313 52 70 C49.11410629 69.60189103 49.11410629 69.60189103 45.8125 69.625 C39.56597976 69.27181537 36.35662371 68.55925737 32 64 C31.03668785 59.97160373 32.05446926 57.60869404 34 54.125 C34.66 53.09375 35.32 52.0625 36 51 C39.50139542 52.29910431 42.49156386 53.85241413 45.625 55.875 C54.87600412 61.50783362 66.65784294 65.88086641 77.5625 66.1875 C82.75501315 66.62174932 85.64822215 69.63923754 89.4765625 72.9375 C95.22670211 77.63730451 101.61891567 79.96191848 108.6875 82 C114.06659207 83.55141662 117.72126611 85.41780418 122 89 C119.43293352 90.71137765 117.46119438 91.67744469 114.61132812 92.72412109 C113.28349304 93.21505753 113.28349304 93.21505753 111.92883301 93.71591187 C110.97263062 94.06489532 110.01642822 94.41387878 109.03125 94.7734375 C108.04056519 95.13845367 107.04988037 95.50346985 106.0291748 95.87954712 C102.85412282 97.04837911 99.67709457 98.21173309 96.5 99.375 C94.39049448 100.15068681 92.28111798 100.92672457 90.171875 101.703125 C80.28882779 105.33835226 80.28882779 105.33835226 75.72454834 106.99945068 C73.83886054 107.69194111 71.95779807 108.3971092 70.08062744 109.11236572 C59.92137132 112.94131519 48.74999883 114.59168772 38 112 C33.95649449 108.60191079 32.75051901 104.8798715 31 100 C26.62507584 93.43761377 20.92090326 89.58363923 14 86 C13.36835938 85.67 12.73671875 85.34 12.0859375 85 C7.75696172 82.94423068 3.71286662 82.41340935 -1 82 C-11.76691491 55.85177808 -9.98919173 26.05876104 0 0 Z " fill="#F9FD90" transform="translate(154,200)"/>
<path d="M0 0 C0.74652832 0.01426025 1.49305664 0.02852051 2.26220703 0.04321289 C13.69624337 0.46772598 23.79033686 3.77824123 34.0859375 8.5625 C45.204888 13.64611379 56.4619828 18.36924323 67.75 23.0625 C69.73057528 23.88841646 71.71104451 24.71458728 73.69140625 25.54101562 C78.45972726 27.53026087 83.22944483 29.51611901 88 31.5 C88 31.83 88 32.16 88 32.5 C29.59 32.5 -28.82 32.5 -89 32.5 C-89 31.18 -89 29.86 -89 28.5 C-87.90389404 28.10228394 -87.90389404 28.10228394 -86.78564453 27.6965332 C-83.23102991 26.40477183 -79.67781889 25.10918927 -76.125 23.8125 C-75.46417419 23.57167694 -74.80334839 23.33085388 -74.12249756 23.08273315 C-66.05070619 20.13807111 -58.00570355 17.13584538 -50 14.015625 C-49.25700653 13.72709152 -48.51401306 13.43855804 -47.74850464 13.14128113 C-44.15333983 11.74474711 -40.56218732 10.33931454 -36.97705078 8.91723633 C-25.29198453 4.33484534 -12.72124328 -0.36032697 0 0 Z " fill="#EB8181" transform="translate(94,278.5)"/>
<path d="M0 0 C13.3814938 0.44604979 24.05906037 8.03516729 33.26953125 17.27734375 C40.51968129 25.11156893 47.68223267 33.71963831 53 43 C52.20335937 43.49628906 51.40671875 43.99257813 50.5859375 44.50390625 C39.57506436 51.56318867 34.52393274 58.0706559 29 70 C25.97967265 69.04356301 22.98991135 68.04562911 20 67 C18.46859375 66.47212891 18.46859375 66.47212891 16.90625 65.93359375 C15.8646875 65.54300781 14.823125 65.15242188 13.75 64.75 C12.77546875 64.39421875 11.8009375 64.0384375 10.796875 63.671875 C7.58890124 61.7542594 6.42158074 59.90116093 4.40673828 56.84570312 C1.86326641 53.50855503 -1.53845728 51.27989374 -4.9375 48.875 C-6.32271667 47.87391905 -7.70684788 46.87133426 -9.08984375 45.8671875 C-10.08129395 45.14873657 -10.08129395 45.14873657 -11.09277344 44.41577148 C-15.22499555 41.3483424 -19.11536503 38.32695245 -22 34 C-20.60243441 30.71286869 -19.04355249 29.00511388 -16.25 26.8125 C-7.78532008 19.57015653 -4.05607821 10.111429 0 0 Z " fill="#F9FD90" transform="translate(316,240)"/>
<path d="M0 0 C12.65714158 -1.07263912 24.01423871 5.7908426 35.1875 11.0625 C42.71361677 14.60238229 50.23228477 18.02064724 58 21 C58.33 19.35 58.66 17.7 59 16 C59.33 16 59.66 16 60 16 C59.51358785 22.84817102 58.64006048 29.33042073 57 36 C56.67 34.68 56.34 33.36 56 32 C11.78 32 -32.44 32 -78 32 C-75.97050862 29.97050862 -74.77370873 29.36967629 -72.15625 28.34375 C-71.40472656 28.04339844 -70.65320313 27.74304688 -69.87890625 27.43359375 C-68.29296875 26.81119792 -66.70703125 26.18880208 -65.12109375 25.56640625 C-64.36957031 25.26605469 -63.61804688 24.96570313 -62.84375 24.65625 C-62.15474609 24.38619141 -61.46574219 24.11613281 -60.75585938 23.83789062 C-58.80383721 23.0262618 -58.80383721 23.0262618 -57 21 C-56.09507812 21.41572266 -56.09507812 21.41572266 -55.171875 21.83984375 C-54.37265625 22.20207031 -53.5734375 22.56429688 -52.75 22.9375 C-51.96109375 23.29714844 -51.1721875 23.65679687 -50.359375 24.02734375 C-42.22802673 27.37950554 -30.58054185 27.34521265 -22.0625 25.0625 C-10.89323339 20.36192062 -5.21974881 10.24995366 0 0 Z " fill="#EB8382" transform="translate(449,280)"/>
<path d="M0 0 C7.81411553 5.20941035 13.69618087 11.13084922 17.63671875 19.7578125 C17.96671875 21.4078125 18.29671875 23.0578125 18.63671875 24.7578125 C-42.08328125 24.7578125 -102.80328125 24.7578125 -165.36328125 24.7578125 C-165.36328125 24.4278125 -165.36328125 24.0978125 -165.36328125 23.7578125 C-108.27328125 23.4278125 -51.18328125 23.0978125 7.63671875 22.7578125 C-8.20328125 16.1578125 -24.04328125 9.5578125 -40.36328125 2.7578125 C-42.67328125 1.7678125 -44.98328125 0.7778125 -47.36328125 -0.2421875 C-47.36328125 -0.5721875 -47.36328125 -0.9021875 -47.36328125 -1.2421875 C-45.17413331 -1.98679564 -42.98256335 -2.72144833 -40.78515625 -3.44140625 C-38.86433382 -4.07651689 -36.95520284 -4.74697033 -35.05078125 -5.4296875 C-23.01425097 -8.08180434 -10.5710132 -6.24308055 0 0 Z " fill="#FCA79A" transform="translate(172.36328125,287.2421875)"/>
<path d="M0 0 C2.10888672 1.09814453 2.10888672 1.09814453 4.1796875 2.6328125 C4.94410156 3.19226563 5.70851563 3.75171875 6.49609375 4.328125 C7.28113281 4.92109375 8.06617188 5.5140625 8.875 6.125 C9.65230469 6.69476563 10.42960937 7.26453125 11.23046875 7.8515625 C24.57269401 17.71808202 24.57269401 17.71808202 26 22 C-2.71 22 -31.42 22 -61 22 C-58.84637858 19.84637858 -57.50198446 19.29343611 -54.67724609 18.26000977 C-53.7822641 17.92949112 -52.8872821 17.59897247 -51.96517944 17.25843811 C-50.9944046 16.9063176 -50.02362976 16.55419708 -49.0234375 16.19140625 C-48.02422272 15.8240184 -47.02500793 15.45663055 -45.99551392 15.07810974 C-42.79055996 13.90102602 -39.58286031 12.73163705 -36.375 11.5625 C-34.23548868 10.77850875 -32.09616342 9.99400954 -29.95703125 9.20898438 C-25.12945962 7.43782634 -20.30122848 5.66854694 -15.46746826 3.91433716 C-13.88003598 3.32610332 -12.29945158 2.71886022 -10.72833252 2.08834839 C-3.95868339 -0.61632708 -3.95868339 -0.61632708 0 0 Z " fill="#EB8482" transform="translate(278,290)"/>
<path d="M0 0 C2.00899557 1.29065138 3.38744907 2.57642705 4.98828125 4.33984375 C9.78800069 9.31810855 15.4047587 13.23410328 20.98828125 17.27734375 C19.98828125 20.27734375 19.98828125 20.27734375 18.39355469 21.24462891 C17.7184082 21.51581543 17.04326172 21.78700195 16.34765625 22.06640625 C15.60644531 22.36804688 14.86523438 22.6696875 14.1015625 22.98046875 C13.32167969 23.2846875 12.54179687 23.58890625 11.73828125 23.90234375 C10.97386719 24.21429688 10.20945312 24.52625 9.421875 24.84765625 C3.73268917 27.12726094 -1.12143742 28.4820954 -7.3125 28.15625 C-8.28896484 28.10791016 -9.26542969 28.05957031 -10.27148438 28.00976562 C-11.27888672 27.95369141 -12.28628906 27.89761719 -13.32421875 27.83984375 C-14.86432617 27.7615332 -14.86432617 27.7615332 -16.43554688 27.68164062 C-18.96127962 27.55241709 -21.48657136 27.41747084 -24.01171875 27.27734375 C-24.93651471 24.30880419 -25.12317072 23.55012829 -23.89453125 20.54296875 C-20.36260683 14.48375618 -8.98898718 -3.22905365 0 0 Z " fill="#FEE3AF" transform="translate(370.01171875,283.72265625)"/>
<path d="M0 0 C8.25 3.3 16.5 6.6 25 10 C25 10.33 25 10.66 25 11 C16.09 11 7.18 11 -2 11 C-1.34 7.37 -0.68 3.74 0 0 Z " fill="#EC8984" transform="translate(323,301)"/>
<path d="M0 0 C0.66 0.33 1.32 0.66 2 1 C-5.93845393 8.42072867 -14.24329164 13.21008944 -25.3125 13.0625 C-26.19550781 13.05347656 -27.07851563 13.04445313 -27.98828125 13.03515625 C-28.65214844 13.02355469 -29.31601562 13.01195312 -30 13 C-24.43052967 10.13658582 -18.62932222 7.77465617 -12.875 5.3125 C-11.66972656 4.78849609 -10.46445312 4.26449219 -9.22265625 3.72460938 C-8.07410156 3.23412109 -6.92554688 2.74363281 -5.7421875 2.23828125 C-4.6888623 1.78493408 -3.63553711 1.33158691 -2.55029297 0.86450195 C-1.70869629 0.57921631 -0.86709961 0.29393066 0 0 Z " fill="#E88380" transform="translate(441,281)"/>
</svg>
